<svg width="20" height="31" viewBox="0 0 20 31" fill="none" xmlns="http://www.w3.org/2000/svg">
<path d="M10 0C13.0114 0 15.4545 2.60352 15.4545 5.8125V15.5C15.4545 18.709 13.0114 21.3125 10 21.3125C6.98864 21.3125 4.54545 18.709 4.54545 15.5V5.8125C4.54545 2.60352 6.98864 0 10 0ZM17.2727 13.0781C17.2727 12.2729 17.8807 11.625 18.6364 11.625C19.392 11.625 20 12.2729 20 13.0781V15.5C20 20.8947 16.2386 25.351 11.3636 26.0594V28.0938H14.0909C14.8466 28.0938 15.4545 28.7416 15.4545 29.5469C15.4545 30.3521 14.8466 31 14.0909 31H10H5.90909C5.15341 31 4.54545 30.3521 4.54545 29.5469C4.54545 28.7416 5.15341 28.0938 5.90909 28.0938H8.63636V26.0594C3.76136 25.351 -5.96046e-07 20.8947 -5.96046e-07 15.5V13.0781C-5.96046e-07 12.2729 0.607954 11.625 1.36364 11.625C2.11932 11.625 2.72727 12.2729 2.72727 13.0781V15.5C2.72727 19.7807 5.98295 23.25 10 23.25C14.017 23.25 17.2727 19.7807 17.2727 15.5V13.0781Z" fill="black"/>
</svg>
