<svg width="40" height="40" viewBox="0 0 40 40" fill="none" xmlns="http://www.w3.org/2000/svg">
<g clip-path="url(#clip0_230_1714)">
<path d="M20 3.33325C16.9058 3.33325 13.9383 4.56241 11.7504 6.75034C9.56246 8.93826 8.3333 11.9057 8.3333 14.9999V20.8799C8.33354 21.1385 8.27363 21.3935 8.1583 21.6249L5.29663 27.3466C5.15684 27.6261 5.09084 27.9367 5.10488 28.249C5.11892 28.5612 5.21255 28.8646 5.37687 29.1305C5.5412 29.3963 5.77075 29.6158 6.04374 29.7679C6.31673 29.9201 6.6241 30 6.93663 29.9999H33.0633C33.3758 30 33.6832 29.9201 33.9562 29.7679C34.2292 29.6158 34.4587 29.3963 34.6231 29.1305C34.7874 28.8646 34.881 28.5612 34.8951 28.249C34.9091 27.9367 34.8431 27.6261 34.7033 27.3466L31.8433 21.6249C31.7274 21.3937 31.6669 21.1386 31.6666 20.8799V14.9999C31.6666 11.9057 30.4375 8.93826 28.2495 6.75034C26.0616 4.56241 23.0942 3.33325 20 3.33325ZM20 34.9999C18.9655 35.0005 17.9564 34.6802 17.1117 34.0832C16.2669 33.4862 15.6281 32.6418 15.2833 31.6666H24.7166C24.3718 32.6418 23.733 33.4862 22.8883 34.0832C22.0435 34.6802 21.0344 35.0005 20 34.9999Z" fill="#1E1E1E"/>
</g>
<defs>
<clipPath id="clip0_230_1714">
<rect width="40" height="40" fill="white"/>
</clipPath>
</defs>
</svg>
