<svg width="31" height="25" viewBox="0 0 31 25" fill="none" xmlns="http://www.w3.org/2000/svg">
<path d="M29.1204 0.250111C29.6241 -0.150258 30.3555 -0.0574896 30.7527 0.450295C31.1499 0.95808 31.0579 1.69534 30.5541 2.09571L1.87961 24.7507C1.37587 25.1511 0.64448 25.0583 0.247299 24.5505C-0.149881 24.0427 -0.0578517 23.3055 0.445889 22.9051L7.98263 16.9484C4.93112 13.184 3.10022 8.36978 3.10022 3.12593C3.10022 2.24707 3.6863 1.47563 4.5291 1.24127L8.79152 0.0694565C9.73119 -0.189318 10.7145 0.294054 11.0874 1.20221L13.0249 5.88945C13.3543 6.6853 13.1266 7.6081 12.463 8.15007L10.0751 10.1226C10.6563 11.3677 11.3926 12.5248 12.2547 13.5746L29.1204 0.250111ZM11.349 20.293L15.7712 16.7775C16.4348 17.2218 17.1275 17.6222 17.854 17.964L19.8109 15.5618C20.3534 14.8929 21.264 14.6634 22.0535 14.9954L26.7034 16.9484C27.6043 17.3244 28.0838 18.3155 27.8271 19.2627L26.6646 23.5594C26.437 24.4089 25.6717 24.9997 24.7998 24.9997C19.7188 24.9997 15.0495 23.242 11.349 20.293Z" fill="#FF0000"/>
</svg>
